<svg width="698" height="425" viewBox="0 0 698 425" fill="none" xmlns="http://www.w3.org/2000/svg">
<g clip-path="url(#clip0_1_166)">
<path d="M168.396 322.848C168.396 382.733 149.442 403.404 94.7026 403.404C39.9645 403.404 21 382.733 21 322.848V26.0587H47.3148V293.164C47.3148 318.073 61.0051 328.14 94.6923 328.14C128.38 328.14 142.07 318.073 142.07 293.164V26.0587H168.396V322.848ZM264.885 397.048H191.193V321.794H264.885C303.836 321.794 312.263 311.727 312.263 286.818V26.0587H338.589V316.481C338.589 375.85 325.426 397.048 264.885 397.048ZM434.02 397.048H360.327V321.794H434.02C472.97 321.794 481.397 311.727 481.397 286.818V26.0587H507.723V316.481C507.712 375.85 494.549 397.048 434.02 397.048ZM603.749 403.405C543.208 403.405 530.056 382.207 530.056 322.849V100.259C530.056 40.9016 543.219 19.7027 603.749 19.7027C664.289 19.7027 677.441 40.9008 677.441 100.259V322.849C677.441 382.207 664.289 403.405 603.749 403.405ZM603.749 94.9576C564.798 94.9576 556.371 105.024 556.371 129.933V293.164C556.371 318.073 564.798 328.14 603.749 328.14C642.699 328.14 651.126 318.073 651.126 293.164V129.944C651.126 105.035 642.699 94.9568 603.749 94.9568V94.9576Z" fill="black"/>
</g>
<g clip-path="url(#clip1_1_166)">
<path d="M624.061 162.134H525.724C525.424 162.134 525.129 162.063 524.861 161.927C524.594 161.792 524.362 161.595 524.185 161.354L499.879 128.213C487.298 111.073 476.235 99.3765 466.981 93.4572C462.213 90.3992 455.83 88.0905 448.029 86.5846C440.4 85.1193 431.135 84.3723 420.515 84.3723H404.782C403.448 84.3723 402.516 85.7054 402.993 86.9637L403.394 88.026L412.041 111.009L412.236 111.519C412.374 111.882 412.618 112.195 412.938 112.415C413.257 112.636 413.637 112.754 414.025 112.754H432.944C448.017 112.754 459.601 114.347 467.349 117.492C474.977 120.581 483.321 128.007 492.174 139.553L507.052 159.044C508.017 160.303 507.118 162.123 505.535 162.123H73.5104C73.0019 162.124 72.5144 162.326 72.1548 162.686C71.7952 163.046 71.5929 163.533 71.592 164.042V184.835C71.5931 185.344 71.7955 185.831 72.1551 186.191C72.5147 186.55 73.002 186.753 73.5104 186.753H178.295C178.783 186.753 179.249 186.938 179.596 187.263C186.921 194.148 190.627 201.161 190.627 208.121C190.627 216.512 187.018 222.539 179.607 226.572C171.761 230.844 157.501 233.098 137.216 233.283L135.916 233.294C134.474 233.304 133.563 234.844 134.246 236.112L134.864 237.262L145.809 257.675L146.036 258.109C146.204 258.421 146.454 258.68 146.76 258.858C147.066 259.036 147.416 259.126 147.77 259.117L148.258 259.106C161.001 258.77 171.891 256.981 180.669 253.783C180.983 253.669 181.322 253.64 181.651 253.699C181.98 253.758 182.288 253.903 182.543 254.119C187.235 258.033 190.854 262.325 193.314 266.911C196.11 272.093 197.519 277.849 197.519 283.986C197.519 291.834 194.604 297.927 188.622 302.611C182.435 307.456 175.489 309.82 167.372 309.82C159.126 309.82 150.804 306.427 142.655 299.748C134.236 292.854 125.123 281.655 115.598 266.467L95.0527 233.868L94.6515 233.229C94.3888 232.811 93.9746 232.511 93.4958 232.392C93.017 232.273 92.5106 232.343 92.0828 232.589L91.4333 232.968L85.7545 236.221L85.0397 236.601C84.8163 236.729 84.6211 236.901 84.4656 237.106C84.3102 237.312 84.1977 237.546 84.135 237.796C84.0723 238.046 84.0606 238.306 84.1006 238.561C84.1406 238.815 84.2315 239.059 84.3679 239.278L84.8009 239.972L105.748 273.513C121.774 299.119 134.388 315.023 144.313 322.146C154.283 329.3 164.913 332.933 175.901 332.933C188.438 332.933 199.003 329.128 207.304 321.615C215.702 314.037 219.96 304.291 219.96 292.637C219.96 283.477 217.457 274.739 212.538 266.684C208.572 260.201 202.947 254.022 195.785 248.276C195.561 248.098 195.381 247.872 195.256 247.615C195.131 247.358 195.065 247.076 195.063 246.79C195.061 246.505 195.123 246.222 195.244 245.963C195.365 245.704 195.543 245.476 195.763 245.294C199.329 242.357 202.2 238.953 204.345 235.137C207.445 229.608 209.016 223.114 209.016 215.829C209.016 205.833 205.939 197.15 199.827 189.909C198.775 188.662 199.653 186.753 201.279 186.753H455.234C455.486 186.753 455.736 186.802 455.969 186.899C456.202 186.995 456.413 187.136 456.592 187.315C456.77 187.493 456.911 187.705 457.007 187.938C457.104 188.171 457.153 188.421 457.152 188.673V211.623C457.151 212.131 456.949 212.619 456.589 212.979C456.23 213.338 455.742 213.54 455.234 213.541H377.94C376.228 213.541 375.383 215.623 376.597 216.816L377.962 218.171C394.715 234.66 404.673 245.75 407.545 251.127C410.34 256.33 411.759 260.797 411.759 264.397C411.759 269.079 410.351 272.711 407.458 275.487C404.521 278.305 400.805 279.671 396.08 279.671C389.524 279.671 381.701 275.465 372.858 267.15C365.858 260.58 358.425 249.501 350.763 234.226L350.742 234.183L341.986 215.113L341.78 214.659C341.629 214.326 341.385 214.043 341.078 213.845C340.77 213.647 340.412 213.541 340.047 213.541H267.553C265.84 213.541 264.995 215.623 266.209 216.816L267.585 218.171C284.338 234.66 294.296 245.75 297.168 251.127C299.964 256.33 301.383 260.797 301.383 264.397C301.383 269.079 299.974 272.711 297.081 275.487C294.144 278.305 290.427 279.671 285.703 279.671C279.147 279.671 271.323 275.465 262.481 267.15C253.379 258.607 243.605 242.519 233.441 219.352L233.082 218.528C232.972 218.279 232.811 218.057 232.608 217.875C232.405 217.694 232.167 217.558 231.907 217.476C231.648 217.394 231.374 217.368 231.104 217.4C230.834 217.432 230.574 217.521 230.341 217.661L229.572 218.116L224.165 221.369L223.612 221.705C223.232 221.932 222.942 222.284 222.794 222.702C222.645 223.119 222.647 223.576 222.8 223.992L223.016 224.6C231.837 249.317 242.153 268.993 253.682 283.075C259.545 290.252 265.602 295.727 271.67 299.358C277.89 303.076 284.294 304.963 290.709 304.963C301.047 304.963 309.716 301.537 316.478 294.773C323.228 288.019 326.663 279.433 326.663 269.264C326.663 263.702 325.027 257.827 321.809 251.799C319.967 248.341 317.572 244.774 314.647 241.142C313.639 239.896 314.527 238.031 316.131 238.031H337.229C337.998 238.031 338.703 238.498 338.995 239.213C346.45 257.143 354.87 271.887 364.037 283.086C369.9 290.263 375.957 295.737 382.025 299.369C388.245 303.088 394.66 304.974 401.075 304.974C411.413 304.974 420.082 301.548 426.844 294.783C433.605 288.029 437.029 279.444 437.029 269.274C437.029 263.713 435.394 257.838 432.186 251.81C430.344 248.352 427.938 244.785 425.023 241.142C424.016 239.896 424.904 238.031 426.508 238.031H455.234C455.486 238.03 455.736 238.08 455.969 238.176C456.202 238.272 456.413 238.414 456.592 238.592C456.77 238.77 456.911 238.982 457.007 239.215C457.104 239.448 457.153 239.698 457.152 239.95V321.246C457.152 321.723 457.336 322.189 457.662 322.547L457.867 322.774L473.547 339.806L473.786 340.066C474.154 340.456 474.664 340.684 475.195 340.684H482.01C482.519 340.683 483.006 340.48 483.365 340.121C483.725 339.761 483.927 339.274 483.929 338.765V188.694C483.929 188.186 484.132 187.698 484.491 187.339C484.851 186.979 485.338 186.777 485.846 186.776H511.095C511.603 186.777 512.09 186.979 512.45 187.339C512.809 187.698 513.011 188.186 513.012 188.694V319.468C513.012 319.923 513.175 320.368 513.479 320.715L513.674 320.943L529.895 339.73L530.133 340.001C530.491 340.423 531.022 340.662 531.575 340.662H537.697C538.206 340.661 538.693 340.459 539.053 340.099C539.412 339.739 539.615 339.252 539.615 338.743V188.673C539.616 188.164 539.819 187.677 540.178 187.317C540.537 186.957 541.025 186.755 541.533 186.753H624.874C625.382 186.753 625.87 186.55 626.229 186.191C626.588 185.831 626.791 185.344 626.792 184.835V164.042C626.791 163.534 626.589 163.046 626.229 162.686C625.87 162.326 625.382 162.124 624.874 162.123L624.061 162.134Z" fill="#FFFCF7" stroke="black" stroke-width="2.6806" stroke-miterlimit="10"/>
</g>
<defs>
<clipPath id="clip0_1_166">
<rect width="657" height="384" fill="white" transform="translate(21 19.6875)"/>
</clipPath>
<clipPath id="clip1_1_166">
<rect width="558" height="259" fill="white" transform="translate(70 82.6875)"/>
</clipPath>
</defs>
</svg>
